<svg width="500" height="500" viewBox="0 0 500 500" fill="none" xmlns="http://www.w3.org/2000/svg">
<path d="M62.2968 94.8651C67.7356 127.258 73.1743 134.733 73.1743 167.126C73.1743 187.059 32.3838 204.502 32.3838 204.502V229.419C32.3838 229.419 73.1743 246.861 73.1743 266.795C73.1743 299.188 67.7356 306.663 62.2968 339.056C54.1387 391.382 84.0518 416.3 111.245 416.3C138.439 416.3 168.352 416.3 168.352 416.3V366.465C168.352 366.465 119.404 371.448 119.404 341.547C119.404 319.122 124.842 319.122 130.281 269.287C133 246.861 116.684 229.419 100.368 216.96C116.684 204.502 133 189.551 130.281 167.126C122.123 117.291 119.404 117.291 119.404 94.8651C119.404 64.9642 168.352 67.456 168.352 67.456V17.6212C168.352 17.6212 141.159 17.6212 111.245 17.6212C81.3324 17.6212 54.1387 42.5386 62.2968 94.8651Z" fill="#0F0E0E" stroke="#7F6C82" stroke-width="10.944" stroke-linecap="round" stroke-linejoin="round"/>
<path d="M410.191 94.8651C404.752 127.258 399.314 134.733 399.314 167.126C399.314 187.059 440.104 204.502 440.104 204.502V229.419C440.104 229.419 399.314 246.861 399.314 266.795C399.314 299.188 404.752 306.663 410.191 339.056C418.349 391.382 388.436 416.3 361.242 416.3C334.049 416.3 304.136 416.3 304.136 416.3V366.465C304.136 366.465 353.084 371.448 353.084 341.547C353.084 319.122 347.646 319.122 342.207 269.287C339.487 246.861 355.804 229.419 372.12 216.96C355.804 204.502 339.487 189.551 342.207 167.126C347.646 117.291 353.084 117.291 353.084 94.8651C353.084 64.9642 304.136 67.456 304.136 67.456V17.6212C304.136 17.6212 331.329 17.6212 361.242 17.6212C391.156 17.6212 418.349 42.5386 410.191 94.8651Z" fill="#0F0E0E" stroke="#7F6C82" stroke-width="10.944" stroke-linecap="round" stroke-linejoin="round"/>
<path d="M290.192 120.888C287.928 118.095 288.057 114.06 290.471 111.873C292.889 109.683 296.676 110.17 298.94 112.962C301.2 115.751 301.075 119.783 298.657 121.973C296.243 124.161 292.452 123.676 290.192 120.888ZM174.79 138.414C172.529 135.625 172.655 131.587 175.069 129.399C177.487 127.209 181.277 127.7 183.537 130.489C185.801 133.281 185.676 137.313 183.258 139.504C180.844 141.691 177.053 141.207 174.79 138.414ZM302.573 109.671C298.43 104.559 291.492 103.67 287.07 107.676C286.126 108.531 285.47 109.601 284.91 110.709L185.361 125.649C181.199 122.142 175.525 121.708 171.667 125.202C167.245 129.209 167.016 136.598 171.156 141.706C175.296 146.814 182.237 147.707 186.66 143.7C187.548 142.895 188.139 141.885 188.689 140.854L288.626 125.942C292.765 129.243 298.284 129.597 302.062 126.174C306.484 122.168 306.71 114.775 302.573 109.671Z" fill="#B9ACB9"/>
<path d="M299.015 190.097C296.846 187.42 296.996 183.528 299.343 181.401C301.694 179.271 305.352 179.714 307.522 182.391C309.688 185.064 309.542 188.954 307.191 191.084C304.843 193.21 301.182 192.771 299.015 190.097ZM187.359 207.827C185.192 205.154 185.339 201.257 187.686 199.131C190.037 197.001 193.698 197.447 195.865 200.121C198.035 202.798 197.888 206.687 195.537 208.817C193.189 210.944 189.528 210.504 187.359 207.827ZM311.055 179.19C307.083 174.289 300.382 173.482 296.082 177.377C295.165 178.209 294.524 179.245 293.976 180.317L197.659 195.44C193.658 192.087 188.176 191.709 184.425 195.107C180.125 199.003 179.857 206.131 183.825 211.028C187.794 215.925 194.498 216.736 198.798 212.841C199.662 212.058 200.239 211.079 200.778 210.081L297.469 194.983C301.449 198.137 306.781 198.439 310.455 195.111C314.755 191.215 315.02 184.083 311.055 179.19Z" fill="#927A92"/>
<path d="M203.805 330.478C206.673 327.992 210.762 328.262 212.941 331.073C215.124 333.887 214.569 338.176 211.702 340.661C208.839 343.143 204.753 342.877 202.571 340.062C200.391 337.252 200.942 332.959 203.805 330.478ZM187.866 198.822C190.73 196.34 194.823 196.607 197.002 199.418C199.184 202.232 198.626 206.524 195.763 209.006C192.896 211.491 188.81 211.225 186.627 208.41C184.448 205.6 184.999 201.308 187.866 198.822ZM214.982 344.891C220.231 340.341 221.242 332.486 217.25 327.338C216.398 326.239 215.324 325.461 214.21 324.791L200.641 211.227C204.263 206.606 204.793 200.173 201.311 195.683C197.319 190.535 189.831 190.047 184.586 194.593C179.342 199.139 178.326 206.998 182.318 212.146C183.12 213.18 184.136 213.882 185.172 214.539L198.706 328.543C195.293 333.143 194.847 339.403 198.257 343.801C202.249 348.949 209.742 349.433 214.982 344.891Z" fill="#492649"/>
</svg>
